<svg width="14" height="14" viewBox="0 0 14 14" fill="none" xmlns="http://www.w3.org/2000/svg">
<path fill-rule="evenodd" clip-rule="evenodd" d="M1.13433 0.748766C1.62466 0.268266 2.19787 0 2.83 0C3.07986 0 3.33412 0.0529916 3.56645 0.163702C3.80651 0.27498 4.0253 0.44535 4.19541 0.689725L5.70583 2.81563C5.83951 3.00125 5.9441 3.18286 6.0198 3.36674C6.09668 3.54695 6.14905 3.74838 6.14905 3.95256C6.14905 4.20447 6.07556 4.44525 5.94495 4.66193C5.83396 4.85627 5.68234 5.04369 5.50716 5.21908L5.05805 5.68528C5.06259 5.696 5.0687 5.7105 5.0753 5.7273C5.17289 5.89817 5.3457 6.13864 5.60775 6.44807C5.89474 6.77919 6.19912 7.11467 6.52751 7.44911C6.87435 7.78895 7.20286 8.09773 7.53457 8.37903C7.84822 8.64399 8.09261 8.8129 8.27024 8.90934C8.28458 8.91553 8.29782 8.92152 8.30858 8.9264L8.75831 8.48322C8.93666 8.30532 9.12784 8.14852 9.33194 8.03965C9.54517 7.91287 9.77763 7.84 10.0354 7.84C10.231 7.84 10.4242 7.88167 10.6184 7.96099C10.8028 8.03639 10.9834 8.14012 11.1646 8.26313L11.1687 8.26593L13.329 9.79746C13.5602 9.95791 13.7414 10.1611 13.8543 10.4172L13.8576 10.4249L13.8607 10.4326C13.9438 10.64 14 10.8647 14 11.1219C14 11.4295 13.9313 11.7416 13.7902 12.0402C13.7182 12.1922 13.634 12.3409 13.5348 12.4854C13.5004 12.5356 13.4642 12.5852 13.4262 12.6342C13.3762 12.6986 13.3231 12.7617 13.2669 12.8237C13.1272 12.9775 12.9798 13.1172 12.8238 13.2418C12.5765 13.4394 12.31 13.5975 12.0219 13.7155C11.5692 13.9037 11.0816 14 10.5636 14C9.82113 14 9.0451 13.8256 8.24611 13.4856C7.45873 13.1506 6.6769 12.7016 5.90687 12.1418L5.90621 12.1413C5.13619 11.5797 4.40686 10.9582 3.71175 10.2707L3.7084 10.2674C3.02006 9.57333 2.39752 8.84487 1.84124 8.08184L1.83959 8.07963C1.28767 7.3134 0.837979 6.53963 0.508421 5.76487L0.507815 5.76344C0.174227 4.97231 0 4.19805 0 3.44465C0 2.94445 0.0884211 2.45965 0.269215 2.00781C0.453106 1.54165 0.741948 1.11937 1.13433 0.748766Z" fill="#331D2E"/>
</svg>
