<svg width="1280" height="30" viewBox="0 0 1280 30" fill="none" xmlns="http://www.w3.org/2000/svg">
<mask id="mask0_826_311" style="mask-type:alpha" maskUnits="userSpaceOnUse" x="0" y="0" width="1280" height="29">
<path d="M0 0H1280V20L1254.12 26.8113C1246.16 28.9047 1237.81 29.0032 1229.81 27.0979L1212.19 22.9021C1204.19 20.9968 1195.84 21.0953 1187.88 23.1887L1174.12 26.8113C1166.16 28.9047 1157.81 29.0032 1149.81 27.0979L1132.19 22.9021C1124.19 20.9968 1115.84 21.0953 1107.88 23.1887L1094.12 26.8113C1086.16 28.9047 1077.81 29.0032 1069.81 27.0979L1052.19 22.9021C1044.19 20.9968 1035.84 21.0953 1027.88 23.1887L1014.12 26.8113C1006.16 28.9047 997.813 29.0032 989.811 27.0979L972.189 22.9021C964.187 20.9968 955.838 21.0953 947.883 23.1887L934.117 26.8113C926.162 28.9047 917.813 29.0032 909.811 27.0979L892.189 22.9021C884.187 20.9968 875.838 21.0953 867.883 23.1887L854.117 26.8113C846.162 28.9047 837.813 29.0032 829.811 27.0979L812.189 22.9021C804.187 20.9968 795.838 21.0953 787.883 23.1887L774.117 26.8113C766.162 28.9047 757.813 29.0032 749.811 27.0979L732.189 22.9021C724.187 20.9968 715.838 21.0953 707.883 23.1887L694.117 26.8113C686.162 28.9047 677.813 29.0032 669.811 27.0979L652.189 22.9021C644.187 20.9968 635.838 21.0953 627.883 23.1887L614.117 26.8113C606.162 28.9047 597.813 29.0032 589.811 27.0979L572.189 22.9021C564.187 20.9968 555.838 21.0953 547.883 23.1887L534.117 26.8113C526.162 28.9047 517.813 29.0032 509.811 27.0979L492.189 22.9021C484.187 20.9968 475.838 21.0953 467.883 23.1887L454.117 26.8113C446.162 28.9047 437.813 29.0032 429.811 27.0979L412.189 22.9021C404.187 20.9968 395.838 21.0953 387.883 23.1887L374.117 26.8113C366.162 28.9047 357.813 29.0032 349.811 27.0979L332.189 22.9021C324.187 20.9968 315.838 21.0953 307.883 23.1887L294.117 26.8113C286.162 28.9047 277.813 29.0032 269.811 27.0979L252.189 22.9021C244.187 20.9968 235.838 21.0953 227.883 23.1887L214.117 26.8113C206.162 28.9047 197.813 29.0032 189.811 27.0979L172.189 22.9021C164.187 20.9968 155.838 21.0953 147.883 23.1887L134.117 26.8113C126.162 28.9047 117.813 29.0032 109.811 27.0979L92.1888 22.9021C84.1866 20.9968 75.838 21.0953 67.8831 23.1887L54.1169 26.8113C46.162 28.9047 37.8134 29.0032 29.8112 27.0979L0 20V0Z" fill="#D9D9D9"/>
</mask>
<g mask="url(#mask0_826_311)">
<path d="M0 0H1280V20L1254.12 26.8113C1246.16 28.9047 1237.81 29.0032 1229.81 27.0979L1212.19 22.9021C1204.19 20.9968 1195.84 21.0953 1187.88 23.1887L1174.12 26.8113C1166.16 28.9047 1157.81 29.0032 1149.81 27.0979L1132.19 22.9021C1124.19 20.9968 1115.84 21.0953 1107.88 23.1887L1094.12 26.8113C1086.16 28.9047 1077.81 29.0032 1069.81 27.0979L1052.19 22.9021C1044.19 20.9968 1035.84 21.0953 1027.88 23.1887L1014.12 26.8113C1006.16 28.9047 997.813 29.0032 989.811 27.0979L972.189 22.9021C964.187 20.9968 955.838 21.0953 947.883 23.1887L934.117 26.8113C926.162 28.9047 917.813 29.0032 909.811 27.0979L892.189 22.9021C884.187 20.9968 875.838 21.0953 867.883 23.1887L854.117 26.8113C846.162 28.9047 837.813 29.0032 829.811 27.0979L812.189 22.9021C804.187 20.9968 795.838 21.0953 787.883 23.1887L774.117 26.8113C766.162 28.9047 757.813 29.0032 749.811 27.0979L732.189 22.9021C724.187 20.9968 715.838 21.0953 707.883 23.1887L694.117 26.8113C686.162 28.9047 677.813 29.0032 669.811 27.0979L652.189 22.9021C644.187 20.9968 635.838 21.0953 627.883 23.1887L614.117 26.8113C606.162 28.9047 597.813 29.0032 589.811 27.0979L572.189 22.9021C564.187 20.9968 555.838 21.0953 547.883 23.1887L534.117 26.8113C526.162 28.9047 517.813 29.0032 509.811 27.0979L492.189 22.9021C484.187 20.9968 475.838 21.0953 467.883 23.1887L454.117 26.8113C446.162 28.9047 437.813 29.0032 429.811 27.0979L412.189 22.9021C404.187 20.9968 395.838 21.0953 387.883 23.1887L374.117 26.8113C366.162 28.9047 357.813 29.0032 349.811 27.0979L332.189 22.9021C324.187 20.9968 315.838 21.0953 307.883 23.1887L294.117 26.8113C286.162 28.9047 277.813 29.0032 269.811 27.0979L252.189 22.9021C244.187 20.9968 235.838 21.0953 227.883 23.1887L214.117 26.8113C206.162 28.9047 197.813 29.0032 189.811 27.0979L172.189 22.9021C164.187 20.9968 155.838 21.0953 147.883 23.1887L134.117 26.8113C126.162 28.9047 117.813 29.0032 109.811 27.0979L92.1888 22.9021C84.1866 20.9968 75.838 21.0953 67.8831 23.1887L54.1169 26.8113C46.162 28.9047 37.8134 29.0032 29.8112 27.0979L0 20V0Z" fill="white"/>
<path d="M-17.7871 42.6929L-39.0003 26.783L31.7104 -26.25L52.9236 -10.3401L-17.7871 42.6929Z" fill="#7500CB"/>
<path d="M54.2129 51.6929L32.9997 35.783L103.71 -17.25L124.924 -1.34008L54.2129 51.6929Z" fill="#7500CB"/>
<path d="M137.213 52.4429L116 36.533L186.71 -16.5L207.924 -0.590076L137.213 52.4429Z" fill="#7500CB"/>
<path d="M12.2129 51.6929L-9.00031 35.783L61.7104 -17.25L82.9236 -1.34008L12.2129 51.6929Z" fill="#DFAB45"/>
<path d="M97.2129 50.9429L75.9997 35.033L146.71 -18L167.924 -2.09008L97.2129 50.9429Z" fill="#DFAB45"/>
<path d="M183.213 49.4429L162 33.533L232.71 -19.5L253.924 -3.59008L183.213 49.4429Z" fill="#DFAB45"/>
<path d="M223.213 50.9429L202 35.033L272.71 -18L293.924 -2.09008L223.213 50.9429Z" fill="#7500CB"/>
<path d="M269.213 47.9429L248 32.033L318.71 -21L339.924 -5.09008L269.213 47.9429Z" fill="#DFAB45"/>
<path d="M307.213 50.9429L286 35.033L356.71 -18L377.924 -2.09008L307.213 50.9429Z" fill="#7500CB"/>
<path d="M353.213 47.9429L332 32.033L402.71 -21L423.924 -5.09008L353.213 47.9429Z" fill="#DFAB45"/>
<path d="M393.213 49.4429L372 33.533L442.71 -19.5L463.924 -3.59008L393.213 49.4429Z" fill="#7500CB"/>
<path d="M439.213 46.4429L418 30.533L488.71 -22.5L509.924 -6.59008L439.213 46.4429Z" fill="#DFAB45"/>
<path d="M473.213 52.4429L452 36.533L522.71 -16.5L543.924 -0.590076L473.213 52.4429Z" fill="#7500CB"/>
<path d="M519.213 49.4429L498 33.533L568.71 -19.5L589.924 -3.59008L519.213 49.4429Z" fill="#DFAB45"/>
<path d="M559.213 50.9429L538 35.033L608.71 -18L629.924 -2.09008L559.213 50.9429Z" fill="#7500CB"/>
<path d="M605.213 47.9429L584 32.033L654.71 -21L675.924 -5.09008L605.213 47.9429Z" fill="#DFAB45"/>
<path d="M644.213 50.1929L623 34.283L693.71 -18.75L714.924 -2.84008L644.213 50.1929Z" fill="#7500CB"/>
<path d="M690.213 47.1929L669 31.283L739.71 -21.75L760.924 -5.84008L690.213 47.1929Z" fill="#DFAB45"/>
<path d="M730.213 48.6929L709 32.783L779.71 -20.25L800.924 -4.34008L730.213 48.6929Z" fill="#7500CB"/>
<path d="M776.213 45.6929L755 29.783L825.71 -23.25L846.924 -7.34008L776.213 45.6929Z" fill="#DFAB45"/>
<path d="M810.213 51.6929L789 35.783L859.71 -17.25L880.924 -1.34008L810.213 51.6929Z" fill="#7500CB"/>
<path d="M856.213 48.6929L835 32.783L905.71 -20.25L926.924 -4.34008L856.213 48.6929Z" fill="#DFAB45"/>
<path d="M896.213 50.1929L875 34.283L945.71 -18.75L966.924 -2.84008L896.213 50.1929Z" fill="#7500CB"/>
<path d="M942.213 47.1929L921 31.283L991.71 -21.75L1012.92 -5.84008L942.213 47.1929Z" fill="#DFAB45"/>
<path d="M977.213 52.4429L956 36.533L1026.71 -16.5L1047.92 -0.590076L977.213 52.4429Z" fill="#7500CB"/>
<path d="M1023.21 49.4429L1002 33.533L1072.71 -19.5L1093.92 -3.59008L1023.21 49.4429Z" fill="#DFAB45"/>
<path d="M1063.21 50.9429L1042 35.033L1112.71 -18L1133.92 -2.09008L1063.21 50.9429Z" fill="#7500CB"/>
<path d="M1109.21 47.9429L1088 32.033L1158.71 -21L1179.92 -5.09008L1109.21 47.9429Z" fill="#DFAB45"/>
<path d="M1145.21 52.4429L1124 36.533L1194.71 -16.5L1215.92 -0.590076L1145.21 52.4429Z" fill="#7500CB"/>
<path d="M1191.21 49.4429L1170 33.533L1240.71 -19.5L1261.92 -3.59008L1191.21 49.4429Z" fill="#DFAB45"/>
<path d="M1231.21 50.9429L1210 35.033L1280.71 -18L1301.92 -2.09008L1231.21 50.9429Z" fill="#7500CB"/>
<path d="M1277.21 47.9429L1256 32.033L1326.71 -21L1347.92 -5.09008L1277.21 47.9429Z" fill="#DFAB45"/>
</g>
</svg>
