<svg width="29" height="20" viewBox="0 0 29 20" fill="none" xmlns="http://www.w3.org/2000/svg">
<path d="M28.1659 15.8552C28.2266 16.1041 28.2588 16.3634 28.2588 16.6301C28.2588 18.4912 26.6967 20 24.7692 20C22.916 20 21.4 18.6048 21.2864 16.8428L22.4646 16.6742C22.4886 17.8817 23.5135 18.8566 24.7692 18.8566C26.0403 18.8566 27.0746 17.8578 27.0746 16.6301C27.0746 16.4199 27.0443 16.217 26.9881 16.0242L28.1659 15.8552Z" fill="#F5EDDC"/>
<path d="M4.04942 15.7614C4.22211 15.6541 4.42766 15.5918 4.64832 15.5918C4.96247 15.5918 5.24621 15.718 5.44814 15.9206C5.57311 16.0461 5.66681 16.201 5.71681 16.3735C5.74352 16.4656 5.75781 16.5627 5.75781 16.6631C5.75781 17.2548 5.26111 17.7344 4.64832 17.7344C4.03565 17.7344 3.53896 17.2548 3.53896 16.6631C3.53896 16.5627 3.55325 16.4656 3.57996 16.3735C3.65407 16.1182 3.82379 15.9013 4.04942 15.7614Z" fill="#F5EDDC"/>
<path d="M23.6643 16.6629C23.6643 16.6076 23.6688 16.553 23.6771 16.4998L25.7734 16.1988C25.8015 16.2545 25.8243 16.3128 25.842 16.3736C25.8686 16.4658 25.8828 16.5627 25.8828 16.6629C25.8828 17.2547 25.3864 17.7344 24.7736 17.7344C24.1607 17.7344 23.6643 17.2547 23.6643 16.6629Z" fill="#F5EDDC"/>
<path d="M2.2116 10.9968C2.19497 9.63993 2.4934 8.49069 3.51678 8.36589C6.14405 8.04574 11.0644 7.8171 10.8253 9.46373C10.5865 11.1104 8.48467 12.986 9.01013 13.8845C9.5356 14.7827 17.0352 14.7241 18.1817 14.0839C19.3282 13.4436 20.7135 8.86902 19.6625 6.03229C19.2969 5.0445 19.1863 4.1799 19.1968 3.47139H18.0618C17.948 3.59725 17.7802 3.67723 17.5927 3.67723H15.459C15.116 3.67723 14.838 3.411 14.838 3.0826C14.838 2.75416 15.116 2.48792 15.459 2.48792H17.5927C17.7802 2.48792 17.948 2.5679 18.0618 2.69376H19.2882C19.3882 2.36753 19.579 2.08026 19.8322 1.85716C19.9164 1.783 20.007 1.71607 20.1041 1.6571C20.2881 0.692737 20.9239 0 21.7009 0C22.6264 0 23.3513 0.982485 23.3513 2.23628C23.3513 3.30955 22.8206 4.18351 22.0874 4.41318C22.4659 4.88816 22.9671 5.42244 23.6275 6.01861C25.9507 8.11522 26.3255 10.6919 26.302 12.2444C27.3592 12.6651 28.2012 13.5207 28.549 14.6128C28.6398 14.8977 28.4437 15.1934 28.136 15.2373L27.9547 15.2631L26.7021 15.4414L26.0312 15.5369L24.4559 15.7612L22.4961 16.0404L21.2446 16.2184L21.0629 16.2443C20.7571 16.2879 20.478 16.0628 20.4781 15.7667C20.4781 15.7649 20.4781 15.763 20.4781 15.7612H7.80359C7.88743 16.048 7.93239 16.3504 7.93239 16.663C7.93239 18.506 6.37227 20 4.44756 20C2.52325 20 0.963125 18.506 0.963125 16.663C0.963125 16.3504 1.00809 16.048 1.09194 15.7612H1.04624C0.655291 15.7612 0.305487 15.5235 0.180824 15.1683C0.0633469 14.834 -0.000133514 14.4762 -0.000133514 14.104C-0.000173569 12.6915 0.916687 11.4837 2.2116 10.9968ZM21.4339 3.4535C21.5204 3.52766 21.6122 3.56816 21.701 3.56816C22.0342 3.56816 22.407 2.99841 22.407 2.23624C22.407 1.47406 22.0342 0.904278 21.701 0.904278C21.3727 0.904278 21.0055 1.45814 20.9953 2.20403C20.9949 2.21453 20.9949 2.22538 20.9949 2.23624C20.9949 2.79513 21.1955 3.25057 21.4339 3.4535ZM4.44756 18.8646C5.71528 18.8646 6.74662 17.877 6.74662 16.663C6.74662 16.3422 6.67448 16.0369 6.54489 15.7612H6.50937C6.51578 15.7504 6.52259 15.7391 6.529 15.7283C6.16109 14.9806 5.36626 14.4619 4.44756 14.4619C3.82802 14.4619 3.26519 14.6974 2.8515 15.0805C2.64262 15.2736 2.47185 15.5044 2.35096 15.7612C2.221 16.0369 2.1489 16.3422 2.1489 16.663C2.1489 17.877 3.18019 18.8646 4.44756 18.8646Z" fill="#F5EDDC"/>
<path d="M16.415 13.8334C15.7291 13.9 14.8376 13.9474 13.7755 13.9474C11.5035 13.9474 10.096 13.7213 9.72667 13.5429C9.72854 13.4862 9.74841 13.3646 9.84801 13.141C9.97839 12.8502 10.19 12.5051 10.4171 12.1387C11.7484 13.0911 13.8137 12.8766 14.9526 12.9511C15.7868 13.0057 16.2053 13.4272 16.415 13.8334Z" fill="#F5EDDC"/>
<path d="M3.40461 7.80006L3.87549 7.18077C4.17743 6.78392 4.64342 6.53507 5.15181 6.49889C6.00367 6.43814 7.36692 6.38931 8.4589 6.5727C9.45315 6.7398 9.92367 7.35225 10.1436 7.8406C9.43817 7.62788 8.47205 7.52337 7.23092 7.52337C5.75719 7.52337 4.35199 7.66912 3.64546 7.75594C3.56602 7.76569 3.48552 7.78016 3.40461 7.80006Z" fill="#F5EDDC"/>
</svg>
