<svg width="20" height="14" viewBox="0 0 20 14" fill="none" xmlns="http://www.w3.org/2000/svg">
<path d="M19.5818 2.18627C19.3513 1.32526 18.6746 0.648636 17.8136 0.418156C16.2545 1.2517e-07 9.99996 0 9.99996 0C9.99996 0 3.74547 1.2517e-07 2.18636 0.418156C1.32532 0.648636 0.648666 1.32526 0.418176 2.18627C1.25176e-07 3.74529 0 7 0 7C0 7 1.25176e-07 10.2547 0.418176 11.8138C0.648666 12.6748 1.32532 13.3514 2.18636 13.5818C3.74547 14 9.99996 14 9.99996 14C9.99996 14 16.2545 14 17.8136 13.5818C18.6746 13.3514 19.3513 12.6748 19.5818 11.8138C20 10.2547 20 7 20 7C20 7 19.9983 3.74529 19.5818 2.18627Z" fill="#FF0000"/>
<path d="M7.99805 9.99978L13.194 7.00028L7.99805 4.00073V9.99978Z" fill="white"/>
</svg>
